<mxfile host="app.diagrams.net" agent="Mozilla/5.0 (Macintosh; Intel Mac OS X 10_15_7) AppleWebKit/605.1.15 (KHTML, like Gecko) Version/18.3 Safari/605.1.15" version="26.0.15">
  <diagram id="07fea595-8f29-1299-0266-81d95cde20df" name="Page-1">
    <mxGraphModel grid="1" page="1" gridSize="10" guides="1" tooltips="1" connect="1" arrows="1" fold="1" pageScale="1" pageWidth="1169" pageHeight="827" background="none" math="0" shadow="0">
      <root>
        <mxCell id="0" />
        <mxCell id="1" parent="0" />
        <mxCell id="698" value="" style="rounded=0;whiteSpace=wrap;html=1;shadow=0;labelBackgroundColor=none;strokeColor=none;strokeWidth=3;fillColor=#e8edf0;fontSize=60;fontColor=#2F5B7C;align=left;" vertex="1" parent="1">
          <mxGeometry x="-2285" y="10" width="2250" height="1598" as="geometry" />
        </mxCell>
        <mxCell id="699" value="&lt;div style=&quot;font-size: 26px&quot;&gt;&lt;font style=&quot;font-size: 26px&quot;&gt;RELACIÃ“N CON LOS CLIENTES&lt;/font&gt;&lt;/div&gt;&lt;div&gt;&lt;br&gt;&lt;/div&gt;&lt;div&gt;&lt;br&gt;&lt;/div&gt;" style="rounded=0;whiteSpace=wrap;html=1;shadow=0;labelBackgroundColor=none;strokeColor=#e8edf0;strokeWidth=5;fillColor=#99CCFF;fontSize=12;fontColor=#2F5B7C;align=left;verticalAlign=top;spacing=30;" vertex="1" parent="1">
          <mxGeometry x="-950" y="220" width="420" height="450" as="geometry" />
        </mxCell>
        <mxCell id="700" value="&lt;font&gt;&lt;span style=&quot;font-size: 26px;&quot;&gt;SOCIOS&lt;/span&gt;&lt;br style=&quot;font-size: 12px&quot;&gt;&lt;br&gt;&lt;br&gt;&lt;/font&gt;&lt;div style=&quot;font-size: 12px&quot;&gt;&lt;br style=&quot;font-size: 12px&quot;&gt;&lt;/div&gt;" style="rounded=0;whiteSpace=wrap;html=1;shadow=0;labelBackgroundColor=none;strokeColor=#e8edf0;strokeWidth=5;fillColor=#66FFFF;fontSize=12;fontColor=#2F5B7C;align=left;verticalAlign=top;spacing=30;" vertex="1" parent="1">
          <mxGeometry x="-2210" y="220" width="420" height="900" as="geometry" />
        </mxCell>
        <mxCell id="701" value="&lt;font&gt;&lt;span style=&quot;font-size: 26px;&quot;&gt;ACTIVIDADES PRINCIPALES&lt;/span&gt;&lt;br style=&quot;font-size: 12px&quot;&gt;&lt;div&gt;&lt;br&gt;&lt;/div&gt;&lt;/font&gt;&lt;div&gt;&lt;br&gt;&lt;/div&gt;" style="rounded=0;whiteSpace=wrap;html=1;shadow=0;labelBackgroundColor=none;strokeColor=#e8edf0;strokeWidth=5;fillColor=#FFFF99;fontSize=12;fontColor=#2F5B7C;align=left;verticalAlign=top;spacing=30;" vertex="1" parent="1">
          <mxGeometry x="-1790" y="220" width="420" height="450" as="geometry" />
        </mxCell>
        <mxCell id="702" value="&lt;div&gt;&lt;font style=&quot;font-size: 26px&quot;&gt;RECURSOS CLAVE&lt;/font&gt;&lt;/div&gt;&lt;div&gt;&lt;br&gt;&lt;/div&gt;&lt;div&gt;&lt;br&gt;&lt;/div&gt;" style="rounded=0;whiteSpace=wrap;html=1;shadow=0;labelBackgroundColor=none;strokeColor=#e8edf0;strokeWidth=5;fillColor=#FF9999;fontSize=12;fontColor=#2F5B7C;align=left;verticalAlign=top;spacing=30;" vertex="1" parent="1">
          <mxGeometry x="-1790" y="670" width="420" height="450" as="geometry" />
        </mxCell>
        <mxCell id="703" value="&lt;div style=&quot;font-size: 26px&quot;&gt;PROPUESTA DE VALOR&lt;/div&gt;&lt;div&gt;&lt;br&gt;&lt;/div&gt;&lt;div style=&quot;font-size: 10px&quot;&gt;&lt;br&gt;&lt;/div&gt;" style="rounded=0;whiteSpace=wrap;html=1;shadow=0;labelBackgroundColor=none;strokeColor=#e8edf0;strokeWidth=5;fillColor=#E6FFCC;fontSize=12;fontColor=#2F5B7C;align=left;verticalAlign=top;spacing=30;" vertex="1" parent="1">
          <mxGeometry x="-1370" y="220" width="420" height="900" as="geometry" />
        </mxCell>
        <mxCell id="704" value="&lt;div&gt;&lt;span style=&quot;font-size: 26px;&quot;&gt;SEGMENTOS DE CLIENTES&lt;/span&gt;&lt;/div&gt;&lt;div&gt;&lt;br&gt;&lt;/div&gt;" style="rounded=0;whiteSpace=wrap;html=1;shadow=0;labelBackgroundColor=none;strokeColor=#e8edf0;strokeWidth=5;fillColor=#CCCCFF;fontSize=12;fontColor=#2F5B7C;align=left;verticalAlign=top;spacing=30;" vertex="1" parent="1">
          <mxGeometry x="-530" y="220" width="420" height="900" as="geometry" />
        </mxCell>
        <mxCell id="705" value="&lt;div&gt;&lt;font style=&quot;font-size: 26px&quot;&gt;CANALES&lt;/font&gt;&lt;/div&gt;&lt;div&gt;&lt;br&gt;&lt;/div&gt;&lt;div&gt;&lt;br&gt;&lt;/div&gt;" style="rounded=0;whiteSpace=wrap;html=1;shadow=0;labelBackgroundColor=none;strokeColor=#e8edf0;strokeWidth=5;fillColor=#FFFFCC;fontSize=12;fontColor=#2F5B7C;align=left;verticalAlign=top;spacing=30;" vertex="1" parent="1">
          <mxGeometry x="-950" y="670" width="420" height="450" as="geometry" />
        </mxCell>
        <mxCell id="706" value="&lt;div style=&quot;font-size: 26px&quot;&gt;COSTES ESTRUCTURALES&lt;/div&gt;&lt;div&gt;&lt;br&gt;&lt;/div&gt;" style="rounded=0;whiteSpace=wrap;html=1;shadow=0;labelBackgroundColor=none;strokeColor=#e8edf0;strokeWidth=5;fillColor=#99FF33;fontSize=12;fontColor=#2F5B7C;align=left;verticalAlign=top;spacing=30;" vertex="1" parent="1">
          <mxGeometry x="-2210" y="1120" width="1050" height="330" as="geometry" />
        </mxCell>
        <mxCell id="707" value="&lt;div style=&quot;font-size: 26px&quot;&gt;FUENTES DE INGRESOS&lt;/div&gt;&lt;div&gt;&lt;br&gt;&lt;/div&gt;" style="rounded=0;whiteSpace=wrap;html=1;shadow=0;labelBackgroundColor=none;strokeColor=#e8edf0;strokeWidth=5;fillColor=#7EA6E0;fontSize=12;fontColor=#2F5B7C;align=left;verticalAlign=top;spacing=30;" vertex="1" parent="1">
          <mxGeometry x="-1160" y="1120" width="1050" height="330" as="geometry" />
        </mxCell>
        <mxCell id="708" value="The Business Model Canvas&lt;br&gt;" style="text;html=1;resizable=0;points=[];autosize=1;align=left;verticalAlign=top;spacingTop=-4;fontSize=60;fontColor=#2F5B7C;" vertex="1" parent="1">
          <mxGeometry x="-2210" y="110" width="780" height="70" as="geometry" />
        </mxCell>
        <mxCell id="709" value="" style="html=1;verticalLabelPosition=bottom;labelBackgroundColor=#ffffff;verticalAlign=top;shadow=0;dashed=0;strokeWidth=4;shape=mxgraph.ios7.misc.check;strokeColor=#2F5B7C;fillColor=#ffffff;gradientColor=none;fontSize=12;fontColor=#2F5B7C;align=left;" vertex="1" parent="1">
          <mxGeometry x="-1400" y="235" width="20" height="16" as="geometry" />
        </mxCell>
        <mxCell id="710" value="" style="shape=mxgraph.signs.travel.present;html=1;fillColor=#2F5B7C;strokeColor=none;verticalLabelPosition=bottom;verticalAlign=top;align=center;shadow=0;labelBackgroundColor=none;fontSize=12;fontColor=#2F5B7C;" vertex="1" parent="1">
          <mxGeometry x="-1000" y="235" width="31" height="40" as="geometry" />
        </mxCell>
        <mxCell id="711" value="" style="html=1;verticalLabelPosition=bottom;labelBackgroundColor=#ffffff;verticalAlign=top;strokeWidth=3;strokeColor=none;fillColor=#2F5B7C;shadow=0;dashed=0;shape=mxgraph.ios7.icons.heart;fontSize=12;fontColor=#2F5B7C;align=left;" vertex="1" parent="1">
          <mxGeometry x="-594.9999999999997" y="242" width="41" height="36" as="geometry" />
        </mxCell>
        <mxCell id="715" value="" style="shadow=0;dashed=0;html=1;strokeColor=none;labelPosition=center;verticalLabelPosition=bottom;verticalAlign=top;shape=mxgraph.mscae.cloud.data_factory;fillColor=#2F5B7C;labelBackgroundColor=none;fontSize=10;fontColor=#2F5B7C;align=left;" vertex="1" parent="1">
          <mxGeometry x="-1440" y="690" width="50" height="50" as="geometry" />
        </mxCell>
        <mxCell id="716" value="" style="shape=mxgraph.signs.transportation.truck_6;html=1;fillColor=#2F5B7C;strokeColor=none;verticalLabelPosition=bottom;verticalAlign=top;align=center;shadow=0;labelBackgroundColor=none;fontSize=10;fontColor=#2F5B7C;aspect=fixed;" vertex="1" parent="1">
          <mxGeometry x="-590" y="690" width="40" height="50" as="geometry" />
        </mxCell>
        <mxCell id="717" value="" style="shape=image;html=1;verticalAlign=top;verticalLabelPosition=bottom;labelBackgroundColor=#ffffff;imageAspect=0;aspect=fixed;image=https://cdn4.iconfinder.com/data/icons/evil-icons-user-interface/64/price-128.png;shadow=0;strokeColor=#e8edf0;strokeWidth=3;fillColor=#2F5B7C;gradientColor=none;fontSize=10;fontColor=#2F5B7C;align=left;" vertex="1" parent="1">
          <mxGeometry x="-1226" y="1140" width="58" height="58" as="geometry" />
        </mxCell>
        <mxCell id="718" value="" style="dashed=0;html=1;shape=mxgraph.aws3.checklist_cost;fillColor=#2F5B7C;gradientColor=none;shadow=0;labelBackgroundColor=none;strokeColor=none;strokeWidth=3;fontSize=10;fontColor=#2F5B7C;align=left;" vertex="1" parent="1">
          <mxGeometry x="-203.5" y="1131.5" width="67.5" height="75" as="geometry" />
        </mxCell>
        <mxCell id="719" value="" style="shadow=0;dashed=0;html=1;strokeColor=none;fillColor=#2F5B7C;labelPosition=center;verticalLabelPosition=bottom;verticalAlign=top;outlineConnect=0;shape=mxgraph.office.concepts.link;labelBackgroundColor=none;fontSize=10;fontColor=#000000;align=left;" vertex="1" parent="1">
          <mxGeometry x="-1871" y="241" width="61" height="21" as="geometry" />
        </mxCell>
        <mxCell id="720" value="" style="group" vertex="1" connectable="0" parent="1">
          <mxGeometry x="-190" y="290" width="69" height="50" as="geometry" />
        </mxCell>
        <mxCell id="721" value="" style="shadow=0;dashed=0;html=1;strokeColor=#FFFFFF;labelPosition=center;verticalLabelPosition=bottom;verticalAlign=top;outlineConnect=0;shape=mxgraph.office.users.user;fillColor=#2F5B7C;labelBackgroundColor=none;fontSize=10;fontColor=#000000;align=left;strokeWidth=2;" vertex="1" parent="720">
          <mxGeometry x="31" y="-5" width="46" height="50" as="geometry" />
        </mxCell>
        <mxCell id="722" value="" style="shadow=0;dashed=0;html=1;strokeColor=#FFFFFF;labelPosition=center;verticalLabelPosition=bottom;verticalAlign=top;outlineConnect=0;shape=mxgraph.office.users.user;fillColor=#2F5B7C;labelBackgroundColor=none;fontSize=10;fontColor=#000000;align=left;strokeWidth=2;" vertex="1" parent="720">
          <mxGeometry width="46" height="50" as="geometry" />
        </mxCell>
        <mxCell id="tc0uIFqjSppxVXXI4r7E-723" value="&lt;h1 style=&quot;margin-top: 0px;&quot;&gt;UNIVERSIDADES&lt;/h1&gt;&lt;h1 style=&quot;margin-top: 0px;&quot;&gt;&lt;span style=&quot;font-weight: normal;&quot;&gt;&lt;font style=&quot;font-size: 18px;&quot;&gt;Ofrecer tanto profesores como alumnos&lt;/font&gt;&lt;/span&gt;&lt;br&gt;&lt;/h1&gt;" style="text;html=1;whiteSpace=wrap;overflow=hidden;rounded=0;" vertex="1" parent="1">
          <mxGeometry x="-2160" y="310" width="320" height="120" as="geometry" />
        </mxCell>
        <mxCell id="tc0uIFqjSppxVXXI4r7E-724" value="&lt;h1 style=&quot;margin-top: 0px;&quot;&gt;GENERALITAT&lt;/h1&gt;&lt;h1 style=&quot;margin-top: 0px;&quot;&gt;&lt;span style=&quot;font-weight: normal;&quot;&gt;&lt;font style=&quot;font-size: 18px;&quot;&gt;Centre oficial per preparar les PAU&lt;/font&gt;&lt;/span&gt;&lt;br&gt;&lt;/h1&gt;" style="text;html=1;whiteSpace=wrap;overflow=hidden;rounded=0;" vertex="1" parent="1">
          <mxGeometry x="-2160" y="414" width="320" height="120" as="geometry" />
        </mxCell>
        <mxCell id="tc0uIFqjSppxVXXI4r7E-725" value="&lt;h1 style=&quot;margin-top: 0px;&quot;&gt;INFLUENCERS&lt;/h1&gt;&lt;h1 style=&quot;margin-top: 0px;&quot;&gt;&lt;span style=&quot;font-size: 18px; font-weight: normal;&quot;&gt;Gent que produeix continguts&lt;/span&gt;&lt;br&gt;&lt;/h1&gt;" style="text;html=1;whiteSpace=wrap;overflow=hidden;rounded=0;" vertex="1" parent="1">
          <mxGeometry x="-2160" y="534" width="320" height="120" as="geometry" />
        </mxCell>
        <mxCell id="tc0uIFqjSppxVXXI4r7E-726" value="&lt;h1 style=&quot;margin-top: 0px;&quot;&gt;OFRECER CLASES&lt;/h1&gt;&lt;h1 style=&quot;margin-top: 0px;&quot;&gt;&lt;br&gt;&lt;/h1&gt;" style="text;html=1;whiteSpace=wrap;overflow=hidden;rounded=0;" vertex="1" parent="1">
          <mxGeometry x="-1740" y="300" width="320" height="120" as="geometry" />
        </mxCell>
        <mxCell id="tc0uIFqjSppxVXXI4r7E-727" value="&lt;h1 style=&quot;margin-top: 0px;&quot;&gt;OFRECER APUNTES, TRABAJOS Y EXAMENES&lt;br&gt;&lt;/h1&gt;" style="text;html=1;whiteSpace=wrap;overflow=hidden;rounded=0;" vertex="1" parent="1">
          <mxGeometry x="-1740" y="354" width="320" height="120" as="geometry" />
        </mxCell>
        <mxCell id="tc0uIFqjSppxVXXI4r7E-728" value="&lt;h1 style=&quot;margin-top: 0px;&quot;&gt;RESEÃ‘AS Y RECOMENDACIONES&lt;/h1&gt;&lt;h1 style=&quot;margin-top: 0px;&quot;&gt;&lt;span style=&quot;font-size: 18px; font-weight: normal;&quot;&gt;Los profesores pueden orientar a los alumnos en su futuro profesional&lt;/span&gt;&lt;br&gt;&lt;/h1&gt;" style="text;html=1;whiteSpace=wrap;overflow=hidden;rounded=0;" vertex="1" parent="1">
          <mxGeometry x="-1740" y="440" width="320" height="140" as="geometry" />
        </mxCell>
        <mxCell id="tc0uIFqjSppxVXXI4r7E-730" value="&lt;h1 style=&quot;margin-top: 0px;&quot;&gt;PRECIOS ACCESIBLES&lt;/h1&gt;&lt;h1 style=&quot;margin-top: 0px;&quot;&gt;&lt;font size=&quot;4&quot;&gt;&lt;span style=&quot;font-weight: 400;&quot;&gt;Trabajaremos con pocos mÃ¡rgenes&amp;nbsp;para ofrecer un buen precio&lt;/span&gt;&lt;/font&gt;&lt;/h1&gt;" style="text;html=1;whiteSpace=wrap;overflow=hidden;rounded=0;" vertex="1" parent="1">
          <mxGeometry x="-1320" y="310" width="320" height="120" as="geometry" />
        </mxCell>
        <mxCell id="tc0uIFqjSppxVXXI4r7E-731" value="&lt;h1 style=&quot;margin-top: 0px;&quot;&gt;HORARIOS FLEXIBLES&lt;/h1&gt;&lt;h1 style=&quot;margin-top: 0px;&quot;&gt;&lt;font size=&quot;4&quot;&gt;&lt;span style=&quot;font-weight: normal;&quot;&gt;Los alumnos &lt;/span&gt;&lt;span style=&quot;font-weight: 400;&quot;&gt;podrÃ¡n&lt;/span&gt;&lt;span style=&quot;font-weight: normal;&quot;&gt;&amp;nbsp;concretar la hora con el profesor&lt;/span&gt;&lt;/font&gt;&lt;br&gt;&lt;/h1&gt;" style="text;html=1;whiteSpace=wrap;overflow=hidden;rounded=0;" vertex="1" parent="1">
          <mxGeometry x="-1320" y="430" width="320" height="120" as="geometry" />
        </mxCell>
        <mxCell id="tc0uIFqjSppxVXXI4r7E-732" value="&lt;h1 style=&quot;margin-top: 0px;&quot;&gt;TUTORES ESPECIALIZADOS&lt;/h1&gt;&lt;h1 style=&quot;margin-top: 0px;&quot;&gt;&lt;font size=&quot;4&quot;&gt;&lt;span style=&quot;font-weight: 400;&quot;&gt;Los profesores ya habrÃ¡n hecho esa asignatura&lt;/span&gt;&lt;/font&gt;&lt;/h1&gt;" style="text;html=1;whiteSpace=wrap;overflow=hidden;rounded=0;" vertex="1" parent="1">
          <mxGeometry x="-1320" y="560" width="320" height="150" as="geometry" />
        </mxCell>
        <mxCell id="tc0uIFqjSppxVXXI4r7E-733" value="&lt;h1 style=&quot;margin-top: 0px;&quot;&gt;ESTUDIANTES&lt;/h1&gt;&lt;h1 style=&quot;margin-top: 0px;&quot;&gt;&lt;font size=&quot;4&quot;&gt;&lt;span style=&quot;font-weight: 400;&quot;&gt;Los estudiantes de cursos superiores que necesiten un refuerzo en el Ã¡mbito acadÃ©mico&lt;/span&gt;&lt;/font&gt;&lt;/h1&gt;" style="text;html=1;whiteSpace=wrap;overflow=hidden;rounded=0;" vertex="1" parent="1">
          <mxGeometry x="-490" y="310" width="320" height="150" as="geometry" />
        </mxCell>
        <mxCell id="tc0uIFqjSppxVXXI4r7E-734" value="&lt;h1 style=&quot;margin-top: 0px;&quot;&gt;PADRES Y TUTORES LEGALES&lt;/h1&gt;&lt;h1 style=&quot;margin-top: 0px;&quot;&gt;&lt;font size=&quot;4&quot;&gt;&lt;span style=&quot;font-weight: 400;&quot;&gt;Si ven que el alumno no lo lleva bien, le recomendaran hacer clases particulares&lt;/span&gt;&lt;/font&gt;&lt;/h1&gt;" style="text;html=1;whiteSpace=wrap;overflow=hidden;rounded=0;" vertex="1" parent="1">
          <mxGeometry x="-490" y="474" width="320" height="176" as="geometry" />
        </mxCell>
        <mxCell id="tc0uIFqjSppxVXXI4r7E-735" value="&lt;h1 style=&quot;margin-top: 0px;&quot;&gt;PROFESORES&lt;/h1&gt;&lt;h1 style=&quot;margin-top: 0px;&quot;&gt;&lt;font size=&quot;4&quot;&gt;&lt;span style=&quot;font-weight: 400;&quot;&gt;Pueden pagar para aparecer primero en las bÃºsquedas&lt;/span&gt;&lt;/font&gt;&lt;/h1&gt;" style="text;html=1;whiteSpace=wrap;overflow=hidden;rounded=0;" vertex="1" parent="1">
          <mxGeometry x="-490" y="670" width="320" height="176" as="geometry" />
        </mxCell>
        <mxCell id="tc0uIFqjSppxVXXI4r7E-736" value="&lt;h1 style=&quot;margin-top: 0px;&quot;&gt;COMISIÃ“N POR CLASES PARTICULARES&lt;/h1&gt;&lt;h1 style=&quot;margin-top: 0px;&quot;&gt;&lt;span style=&quot;font-weight: 400; font-size: large;&quot;&gt;Nos llevaremos una comisiÃ³n por ofreces nuestra plataforma a los clientes.&lt;/span&gt;&lt;br&gt;&lt;/h1&gt;" style="text;html=1;whiteSpace=wrap;overflow=hidden;rounded=0;" vertex="1" parent="1">
          <mxGeometry x="-1130" y="1210" width="320" height="176" as="geometry" />
        </mxCell>
        <mxCell id="tc0uIFqjSppxVXXI4r7E-737" value="&lt;h1 style=&quot;margin-top: 0px;&quot;&gt;SUSCRIPCIONES&lt;/h1&gt;&lt;h1 style=&quot;margin-top: 0px;&quot;&gt;&lt;span style=&quot;font-size: large; font-weight: 400;&quot;&gt;Los alumnos tendran packs y promociÃ³nes para invcentivar la compra&lt;/span&gt;&lt;br&gt;&lt;/h1&gt;" style="text;html=1;whiteSpace=wrap;overflow=hidden;rounded=0;" vertex="1" parent="1">
          <mxGeometry x="-750" y="1131.5" width="320" height="176" as="geometry" />
        </mxCell>
        <mxCell id="tc0uIFqjSppxVXXI4r7E-738" value="&lt;h1 style=&quot;margin-top: 0px;&quot;&gt;POSICIONAMIENTO&lt;/h1&gt;&lt;h1 style=&quot;margin-top: 0px;&quot;&gt;&lt;span style=&quot;font-size: large; font-weight: 400;&quot;&gt;Los profesores pagaran para mejorar su posiciÃ³namiento&lt;/span&gt;&lt;br&gt;&lt;/h1&gt;" style="text;html=1;whiteSpace=wrap;overflow=hidden;rounded=0;" vertex="1" parent="1">
          <mxGeometry x="-750" y="1300" width="320" height="150" as="geometry" />
        </mxCell>
        <mxCell id="tc0uIFqjSppxVXXI4r7E-739" value="&lt;h1 style=&quot;margin-top: 0px;&quot;&gt;CANALES DIGITALES&lt;/h1&gt;&lt;h1 style=&quot;margin-top: 0px;&quot;&gt;&lt;font size=&quot;4&quot;&gt;&lt;span style=&quot;font-weight: 400;&quot;&gt;Webs, Apps, Redes Sociales, Google Ads&lt;/span&gt;&lt;/font&gt;&lt;/h1&gt;" style="text;html=1;whiteSpace=wrap;overflow=hidden;rounded=0;" vertex="1" parent="1">
          <mxGeometry x="-930" y="750" width="320" height="120" as="geometry" />
        </mxCell>
        <mxCell id="tc0uIFqjSppxVXXI4r7E-740" value="&lt;h1 style=&quot;margin-top: 0px;&quot;&gt;CANALES DIRECTOS&lt;/h1&gt;&lt;h1 style=&quot;margin-top: 0px;&quot;&gt;&lt;font size=&quot;4&quot;&gt;&lt;span style=&quot;font-weight: 400;&quot;&gt;Mail, Whatsapp, Notificaciones&lt;/span&gt;&lt;/font&gt;&lt;/h1&gt;" style="text;html=1;whiteSpace=wrap;overflow=hidden;rounded=0;" vertex="1" parent="1">
          <mxGeometry x="-930" y="870" width="320" height="120" as="geometry" />
        </mxCell>
        <mxCell id="tc0uIFqjSppxVXXI4r7E-741" value="&lt;h1 style=&quot;margin-top: 0px;&quot;&gt;RECOMENDACIONES&lt;/h1&gt;&lt;h1 style=&quot;margin-top: 0px;&quot;&gt;&lt;font size=&quot;4&quot;&gt;&lt;span style=&quot;font-weight: 400;&quot;&gt;Los estudiantes recomendaran la plataforma a sus amigos&lt;/span&gt;&lt;/font&gt;&lt;/h1&gt;" style="text;html=1;whiteSpace=wrap;overflow=hidden;rounded=0;" vertex="1" parent="1">
          <mxGeometry x="-930" y="990" width="320" height="120" as="geometry" />
        </mxCell>
        <mxCell id="ZC_dmfKbIRPg2udg3u_N-722" value="&lt;h1 style=&quot;margin-top: 0px;&quot;&gt;MANTENIMIENTO DE SERVIDORES&lt;/h1&gt;&lt;h1 style=&quot;margin-top: 0px;&quot;&gt;&lt;font size=&quot;4&quot;&gt;&lt;span style=&quot;font-weight: 400;&quot;&gt;Costes relacionados con la contrataciÃ³n de los servicios&lt;/span&gt;&lt;/font&gt;&lt;/h1&gt;" style="text;html=1;whiteSpace=wrap;overflow=hidden;rounded=0;" vertex="1" parent="1">
          <mxGeometry x="-2180" y="1210" width="320" height="176" as="geometry" />
        </mxCell>
        <mxCell id="ZC_dmfKbIRPg2udg3u_N-723" value="&lt;h1 style=&quot;margin-top: 0px;&quot;&gt;COSTES PUBLICITARIOS&lt;/h1&gt;&lt;h1 style=&quot;margin-top: 0px;&quot;&gt;&lt;font size=&quot;4&quot;&gt;&lt;span style=&quot;font-weight: 400;&quot;&gt;Costes relacionados con las promociones para dar a conocer la plataforma&lt;/span&gt;&lt;/font&gt;&lt;/h1&gt;" style="text;html=1;whiteSpace=wrap;overflow=hidden;rounded=0;" vertex="1" parent="1">
          <mxGeometry x="-1871" y="1210" width="320" height="176" as="geometry" />
        </mxCell>
        <mxCell id="ZC_dmfKbIRPg2udg3u_N-724" value="&lt;h1 style=&quot;margin-top: 0px;&quot;&gt;RECURSOS TECNOLÃ“GICOS&lt;/h1&gt;&lt;h1 style=&quot;margin-top: 0px;&quot;&gt;&lt;font size=&quot;4&quot;&gt;&lt;span style=&quot;font-weight: 400;&quot;&gt;Plataformas web, app mÃ³vil...&lt;/span&gt;&lt;/font&gt;&lt;/h1&gt;" style="text;html=1;whiteSpace=wrap;overflow=hidden;rounded=0;" vertex="1" parent="1">
          <mxGeometry x="-1770" y="750" width="320" height="176" as="geometry" />
        </mxCell>
        <mxCell id="ZC_dmfKbIRPg2udg3u_N-725" value="&lt;h1 style=&quot;margin-top: 0px;&quot;&gt;BASES DE DATOS Y SERVIDORES&lt;/h1&gt;&lt;h1 style=&quot;margin-top: 0px;&quot;&gt;&lt;font size=&quot;4&quot;&gt;&lt;span style=&quot;font-weight: 400;&quot;&gt;Biblioteca digital para material exclusivo&lt;/span&gt;&lt;/font&gt;&lt;/h1&gt;" style="text;html=1;whiteSpace=wrap;overflow=hidden;rounded=0;" vertex="1" parent="1">
          <mxGeometry x="-1770" y="870" width="320" height="176" as="geometry" />
        </mxCell>
        <mxCell id="ZC_dmfKbIRPg2udg3u_N-726" value="&lt;h1 style=&quot;margin-top: 0px;&quot;&gt;SOPORTE ATT. CLIENTES&lt;/h1&gt;&lt;h1 style=&quot;margin-top: 0px;&quot;&gt;&lt;font size=&quot;4&quot;&gt;&lt;span style=&quot;font-weight: 400;&quot;&gt;Chat en vivo y soporte de correo&lt;/span&gt;&lt;/font&gt;&lt;/h1&gt;" style="text;html=1;whiteSpace=wrap;overflow=hidden;rounded=0;" vertex="1" parent="1">
          <mxGeometry x="-930" y="326" width="320" height="176" as="geometry" />
        </mxCell>
        <mxCell id="ZC_dmfKbIRPg2udg3u_N-727" value="&lt;h1 style=&quot;margin-top: 0px;&quot;&gt;FIDELIZACIÃ“N DE USUARIOS&lt;/h1&gt;&lt;h1 style=&quot;margin-top: 0px;&quot;&gt;&lt;font size=&quot;4&quot;&gt;&lt;span style=&quot;font-weight: 400;&quot;&gt;Programa de referidos, ofertas y promociones...&lt;/span&gt;&lt;/font&gt;&lt;/h1&gt;" style="text;html=1;whiteSpace=wrap;overflow=hidden;rounded=0;" vertex="1" parent="1">
          <mxGeometry x="-930" y="420" width="320" height="176" as="geometry" />
        </mxCell>
      </root>
    </mxGraphModel>
  </diagram>
</mxfile>
